<svg width="560" height="382" viewBox="0 0 560 382" fill="none" xmlns="http://www.w3.org/2000/svg">
<g clip-path="url(#clip0_3166_2865)">
<rect width="560" height="382" fill="#DFFFF1"/>
<path d="M593 382H523V303.309V299H593V382Z" fill="#08494B" fill-opacity="0.26"/>
<path d="M523 382H452V242.335C452 239.611 454.631 237.559 457.459 238.082L519.348 249.872C521.468 250.283 523 252.036 523 254.126V382Z" fill="#08494B" fill-opacity="0.26"/>
<path d="M452 382H381V276.34C381 273.945 383.042 272 385.555 272H452V382Z" fill="#08494B" fill-opacity="0.26"/>
<path d="M-32.2267 381.819H38.5242V242.5C38.5242 239.783 35.9023 237.736 33.0848 238.257L-28.5874 250.018C-30.7005 250.428 -32.2267 252.177 -32.2267 254.261V381.819Z" fill="#08494B" fill-opacity="0.26"/>
<path d="M109.275 381.819H180.026V302.976C180.026 300.594 177.991 298.659 175.486 298.659H109.275V381.819Z" fill="#08494B" fill-opacity="0.26"/>
<path d="M38.5241 381.82H109.275V276.696C109.275 274.314 107.24 272.378 104.736 272.378H38.5241V381.82Z" fill="#08494B" fill-opacity="0.26"/>
<path d="M180.026 354.835C183.234 354.135 189.1 354.834 191.4 360.009C195.407 358.902 199.708 361.492 200.623 365.595C201.101 367.73 202.348 369.604 204.189 370.707C206.853 372.3 210 375.518 210 381.82H180.026V354.835Z" fill="#08494B" fill-opacity="0.26"/>
<path d="M407.106 381.727H321.538V213.23C321.538 209.944 324.709 207.468 328.116 208.098L402.704 222.323C405.26 222.818 407.106 224.934 407.106 227.455V381.727Z" fill="#4C9D8D"/>
<path d="M235.97 381.726H150.402V286.372C150.402 283.491 152.863 281.15 155.892 281.15H235.97V381.726Z" fill="#4C9D8D"/>
<path d="M321.538 381.727H235.97V254.588C235.97 251.707 238.431 249.366 241.46 249.366H321.538V381.727Z" fill="#006956"/>
<path d="M278.801 359.219H279.463C284.433 359.219 288.503 363.046 288.503 367.817V381.772H269.808V367.817C269.808 363.091 273.831 359.219 278.848 359.219H278.801Z" fill="#4C9D8D"/>
<rect x="253.095" y="331.2" width="17.126" height="16.2891" rx="2.58336" fill="#4C9D8D"/>
<rect x="287.285" y="331.2" width="17.126" height="16.2891" rx="2.58336" fill="#4C9D8D"/>
<rect x="253.095" y="298.421" width="17.126" height="16.2891" rx="2.58336" fill="#4C9D8D"/>
<rect x="338.664" y="331.2" width="17.126" height="16.2891" rx="2.58336" fill="#006956"/>
<rect x="287.285" y="298.421" width="17.126" height="16.2891" rx="2.58336" fill="#4C9D8D"/>
<rect x="372.853" y="331.2" width="17.126" height="16.2891" rx="2.58336" fill="#006956"/>
<rect x="338.664" y="298.421" width="17.126" height="16.2891" rx="2.58336" fill="#006956"/>
<rect x="253.095" y="265.643" width="17.126" height="16.2891" rx="2.58336" fill="#4C9D8D"/>
<rect x="167.528" y="331.2" width="17.126" height="16.2891" rx="2.58336" fill="#006956"/>
<rect x="287.285" y="265.643" width="17.126" height="16.2891" rx="2.58336" fill="#4C9D8D"/>
<rect x="372.853" y="298.421" width="17.126" height="16.2891" rx="2.58336" fill="#006956"/>
<rect x="201.718" y="331.2" width="17.126" height="16.2891" rx="2.58336" fill="#006956"/>
<rect x="167.528" y="298.421" width="17.126" height="16.2891" rx="2.58336" fill="#006956"/>
<rect x="338.664" y="265.643" width="17.126" height="16.2891" rx="2.58336" fill="#006956"/>
<rect x="338.664" y="232.864" width="17.126" height="16.2891" rx="2.58336" fill="#006956"/>
<rect x="201.718" y="298.421" width="17.126" height="16.2891" rx="2.58336" fill="#006956"/>
<rect x="372.853" y="265.643" width="17.126" height="16.2891" rx="2.58336" fill="#006956"/>
<rect x="372.853" y="232.864" width="17.126" height="16.2891" rx="2.58336" fill="#006956"/>
<path d="M246.991 295.532C246.991 294.147 248.114 293.025 249.498 293.025C250.883 293.025 252.006 294.147 252.006 295.532H246.991ZM282.222 94.5644V310.277H277.207V94.5644H282.222ZM268.969 323.53H260.244V318.515H268.969V323.53ZM246.991 310.277V295.532H252.006V310.277H246.991ZM260.244 323.53C252.925 323.53 246.991 317.596 246.991 310.277H252.006C252.006 314.827 255.694 318.515 260.244 318.515V323.53ZM282.222 310.277C282.222 317.596 276.288 323.53 268.969 323.53V318.515C273.519 318.515 277.207 314.827 277.207 310.277H282.222Z" fill="#006956"/>
<path d="M279.715 102.814C279.601 102.814 279.488 102.814 279.375 102.814C204.9 102.814 135.561 143.978 134.026 195.107C134.001 195.936 134.834 196.51 135.605 196.207C158.631 187.16 184.228 187.16 207.254 196.207L208.859 196.838C209.42 141.869 253.796 111.414 279.715 102.814Z" fill="#F3BE00"/>
<path d="M279.714 102.814C279.827 102.814 279.941 102.814 280.054 102.814C354.529 102.814 423.868 143.978 425.403 195.107C425.428 195.936 424.595 196.51 423.823 196.207C400.797 187.16 375.201 187.16 352.175 196.207L350.57 196.838C350.009 141.869 305.633 111.414 279.714 102.814Z" fill="#F3BE00"/>
<path d="M279.715 102.814C305.633 111.414 350.009 141.869 350.57 196.837C304.283 183.437 255.146 183.437 208.859 196.837C209.42 141.869 253.796 111.414 279.715 102.814Z" fill="#FFDC5C"/>
<path d="M277.371 82.6643C277.398 82.2899 277.71 82 278.085 82H281.408C281.784 82 282.096 82.2912 282.122 82.6666L283.525 102.814H275.904L277.371 82.6643Z" fill="#08494B"/>
<path d="M208.852 196.846C208.591 141.725 255.979 111.182 279.705 102.801H275.918C217.411 126.286 203.25 173.95 203.482 194.847L208.852 196.846Z" fill="#8B6D00"/>
<path d="M350.568 196.846C350.829 141.725 303.441 111.182 279.715 102.801H283.502C342.009 126.286 356.17 173.95 355.938 194.847L350.568 196.846Z" fill="#8B6D00"/>
<path opacity="0.3" d="M230.813 172.446C237.068 148.181 256.43 128.933 267.902 120.342C268.538 119.866 269.301 120.639 268.862 121.302C256.823 139.477 251.505 159.105 250.147 167.983C250.049 168.625 249.545 169.125 248.903 169.218C241.531 170.289 235.076 172.157 231.764 173.302C231.219 173.491 230.669 173.004 230.813 172.446Z" fill="white" fill-opacity="0.6"/>
<path fill-rule="evenodd" clip-rule="evenodd" d="M149.414 192.125C150.032 173.95 166.738 131.948 228.624 109.343L228.276 109.296C175.149 123.02 134 157.042 134 196.838C139.015 194.868 144.146 193.308 149.345 192.159L149.414 192.125Z" fill="white" fill-opacity="0.2"/>
</g>
<defs>
<clipPath id="clip0_3166_2865">
<rect width="560" height="382" fill="white"/>
</clipPath>
</defs>
</svg>
