<svg width="18" height="20" viewBox="0 0 18 20" fill="none" xmlns="http://www.w3.org/2000/svg">
<path d="M13.0939 11.2989C13.9688 10.6559 14.6759 9.83525 15.1618 8.89909C15.6478 7.96293 15.8998 6.93571 15.8989 5.89507H18C18.0011 7.28083 17.6534 8.64737 16.985 9.88416C16.3167 11.1209 15.3465 12.1933 14.1529 13.0143L16.8087 17.3158C17.0873 17.7671 17.1628 18.3034 17.0186 18.8068C16.8744 19.3102 16.5222 19.7394 16.0397 20L12.3344 13.9988C11.1396 14.4877 9.84925 14.7393 8.54508 14.7377C7.24092 14.7393 5.95059 14.4877 4.75576 13.9988L1.05049 20C0.567924 19.7394 0.215806 19.3102 0.0715915 18.8068C-0.072623 18.3034 0.00287868 17.7671 0.281488 17.3158L5.6004 8.69915C5.06984 8.21128 4.68723 7.60045 4.49162 6.92906C4.29602 6.25766 4.29444 5.54974 4.48704 4.87758C4.67964 4.20542 5.05952 3.59311 5.5879 3.10316C6.11627 2.61322 6.77422 2.26319 7.49454 2.08882V0H9.59563V2.08882C10.316 2.26319 10.9739 2.61322 11.5023 3.10316C12.0306 3.59311 12.4105 4.20542 12.6031 4.87758C12.7957 5.54974 12.7941 6.25766 12.5985 6.92906C12.4029 7.60045 12.0203 8.21128 11.4898 8.69915L13.0939 11.2989ZM11.2765 12.2834L9.67127 9.68265C8.9351 9.87377 8.15717 9.87377 7.421 9.68265L5.81577 12.2834C6.6604 12.5987 7.58068 12.7726 8.54613 12.7726C9.51054 12.7726 10.4319 12.5987 11.2765 12.2834ZM8.54508 6.87758C8.82371 6.87758 9.09092 6.77406 9.28793 6.58981C9.48495 6.40555 9.59563 6.15565 9.59563 5.89507C9.59563 5.63449 9.48495 5.38458 9.28793 5.20033C9.09092 5.01607 8.82371 4.91256 8.54508 4.91256C8.26646 4.91256 7.99925 5.01607 7.80224 5.20033C7.60522 5.38458 7.49454 5.63449 7.49454 5.89507C7.49454 6.15565 7.60522 6.40555 7.80224 6.58981C7.99925 6.77406 8.26646 6.87758 8.54508 6.87758Z" fill="#09121F"/>
</svg>
