<svg width="68" height="64" viewBox="0 0 68 64" fill="none" xmlns="http://www.w3.org/2000/svg">
<g clip-path="url(#clip0_3261_10218)">
<path d="M59.3794 61.5245C63.9659 55.8992 66.7229 48.7251 66.7409 40.9047C66.7806 22.8303 52.0684 8.07397 34.0002 8.07397C15.9176 8.07397 1.25952 22.74 1.25952 40.8324C1.25952 48.6709 4.01287 55.8667 8.59938 61.5028C9.6134 62.7484 11.1254 63.4814 12.7312 63.4814H55.262C56.857 63.4814 58.369 62.7629 59.3758 61.5281L59.3794 61.5245Z" fill="#C5E9FF" fill-opacity="0.85"/>
<path d="M54.6935 55.0805L46.9584 54.6232L44.5014 57.9299L36.3423 40.4347L39.4939 37.283C39.6331 37.1438 39.8198 37.0663 40.016 37.0663H46.2955L54.6935 55.0789V55.0805Z" fill="#2E7AFF"/>
<path d="M44.5015 57.9299L42.3372 60.8427L33.8553 42.6513C34.031 42.6434 34.2066 42.5706 34.3426 42.4361L36.344 40.4347L44.5031 57.9299H44.5015Z" fill="#0D5ACC"/>
<path d="M31.3331 40.4727L23.1361 58.0503L20.679 54.7452L12.944 55.2008L21.3989 37.068H27.623C27.8192 37.068 28.0059 37.1455 28.1451 37.2847L31.3347 40.4743L31.3331 40.4727Z" fill="#2E7AFF"/>
<path d="M33.8394 42.6514L25.299 60.963L23.1346 58.0487L31.3317 40.4712L33.2951 42.4346C33.4438 42.5833 33.6416 42.6561 33.8378 42.6498L33.8394 42.6514Z" fill="#0D5ACC"/>
<path d="M53.4123 22.3239L48.2577 17.1709C48.1201 17.0317 48.0425 16.8434 48.0425 16.6488V9.35993C48.0425 8.95174 47.7119 8.62265 47.3053 8.62265H40.0164C39.8202 8.62265 39.6335 8.54513 39.4943 8.4059L34.3412 3.25289C34.0517 2.96494 33.585 2.96494 33.297 3.25289L28.144 8.4059C28.0048 8.54513 27.8181 8.62265 27.6219 8.62265H20.333C19.9248 8.62265 19.5957 8.95332 19.5957 9.35993V16.6488C19.5957 16.8434 19.5182 17.0317 19.379 17.1709L14.226 22.3239C13.938 22.6119 13.938 23.0786 14.226 23.3666L19.379 28.5196C19.5182 28.6588 19.5957 28.8471 19.5957 29.0417V36.3306C19.5957 36.7388 19.9264 37.0679 20.333 37.0679H27.6219C27.8181 37.0679 28.0048 37.1454 28.144 37.2846L33.297 42.4376C33.4458 42.5863 33.6435 42.6591 33.8397 42.6528L33.8476 42.637L33.8539 42.6528C34.0296 42.6449 34.2052 42.5721 34.3412 42.4376L39.4943 37.2846C39.6335 37.1454 39.8202 37.0679 40.0164 37.0679H47.3053C47.7135 37.0679 48.0425 36.7372 48.0425 36.3306V29.0417C48.0425 28.8471 48.1201 28.6588 48.2577 28.5196L53.4123 23.3666C53.7003 23.0786 53.7003 22.6119 53.4123 22.3239ZM49.5218 23.2621L45.3909 27.3931C45.2801 27.5039 45.2184 27.6542 45.2184 27.8124V33.6536C45.2184 33.9795 44.9542 34.2437 44.6267 34.2437H38.7855C38.6304 34.2437 38.4785 34.3055 38.3678 34.4178L34.2368 38.5472C34.0058 38.7797 33.6309 38.7797 33.4015 38.5472L29.2705 34.4178C29.1597 34.3055 29.0094 34.2437 28.8528 34.2437H23.0116C22.6841 34.2437 22.4199 33.9795 22.4199 33.6536V27.8124C22.4199 27.6557 22.3581 27.5039 22.2474 27.3931L18.1164 23.2637C17.8855 23.0312 17.8855 22.6578 18.1164 22.4268L22.2474 18.2974C22.3581 18.1851 22.4199 18.0364 22.4199 17.8781V12.0369C22.4199 11.711 22.6841 11.4452 23.0116 11.4452H28.8528C29.0079 11.4452 29.1597 11.3835 29.2705 11.2727L33.4015 7.14336C33.6324 6.91078 34.0074 6.91078 34.2368 7.14336L38.3678 11.2727C38.4785 11.3835 38.6288 11.4452 38.7855 11.4452H44.6267C44.9542 11.4452 45.2184 11.711 45.2184 12.0369V17.8781C45.2184 18.0348 45.2801 18.1851 45.3909 18.2974L49.5218 22.4268C49.7528 22.6594 49.7528 23.0327 49.5218 23.2621Z" fill="#2E7AFF"/>
<path d="M33.845 42.6354L33.8497 42.6472C33.8497 42.6472 33.8426 42.6472 33.8391 42.6472L33.845 42.6354Z" fill="#679FFF"/>
<path d="M49.5198 23.2623L45.3888 27.3932C45.2781 27.504 45.2164 27.6543 45.2164 27.8125V33.6537C45.2164 33.9797 44.9522 34.2439 44.6247 34.2439H38.7834C38.6284 34.2439 38.4765 34.3056 38.3657 34.4179L34.2348 38.5473C34.0038 38.7799 33.6288 38.7799 33.3994 38.5473L29.2685 34.4179C29.1577 34.3056 29.0074 34.2439 28.8508 34.2439H23.0095C22.682 34.2439 22.4178 33.9797 22.4178 33.6537V27.8125C22.4178 27.6559 22.3561 27.504 22.2454 27.3932L18.1144 23.2639C17.8834 23.0313 17.8834 22.6579 18.1144 22.4269L22.2454 18.2975C22.3561 18.1852 22.4178 18.0365 22.4178 17.8783V12.037C22.4178 11.7111 22.682 11.4453 23.0095 11.4453H28.8508C29.0058 11.4453 29.1577 11.3836 29.2685 11.2729L33.3994 7.14349C33.6304 6.91091 34.0054 6.91091 34.2348 7.14349L38.3657 11.2729C38.4765 11.3836 38.6268 11.4453 38.7834 11.4453H44.6247C44.9522 11.4453 45.2164 11.7111 45.2164 12.037V17.8783C45.2164 18.0349 45.2781 18.1852 45.3888 18.2975L49.5198 22.4269C49.7508 22.6595 49.7508 23.0329 49.5198 23.2623Z" fill="#679FFF"/>
<path d="M49.5198 23.2623L45.3888 27.3932C45.2781 27.504 45.2164 27.6543 45.2164 27.8125V33.6537C45.2164 33.9797 44.9522 34.2439 44.6247 34.2439H38.7834C38.6284 34.2439 38.4765 34.3056 38.3657 34.4179L34.2348 38.5473C34.0038 38.7799 33.6288 38.7799 33.3994 38.5473L29.2685 34.4179C29.1577 34.3056 29.0074 34.2439 28.8508 34.2439H23.0095C22.682 34.2439 22.4178 33.9797 22.4178 33.6537V27.8125C22.4178 27.6559 22.3561 27.504 22.2454 27.3932L18.1144 23.2639C17.8834 23.0313 17.8834 22.6579 18.1144 22.4269L22.2454 18.2975C22.3561 18.1852 22.4178 18.0365 22.4178 17.8783V12.037C22.4178 11.7111 22.682 11.4453 23.0095 11.4453H28.8508C29.0058 11.4453 29.1577 11.3836 29.2685 11.2729L33.3994 7.14349C33.6304 6.91091 34.0054 6.91091 34.2348 7.14349L38.3657 11.2729C38.4765 11.3836 38.6268 11.4453 38.7834 11.4453H44.6247C44.9522 11.4453 45.2164 11.7111 45.2164 12.037V17.8783C45.2164 18.0349 45.2781 18.1852 45.3888 18.2975L49.5198 22.4269C49.7508 22.6595 49.7508 23.0329 49.5198 23.2623Z" fill="#C5E9FF"/>
<path d="M29.971 30.1112H33.3346L29.5676 23.4504L26.2308 23.4282L29.971 30.1112Z" fill="#0D5ACC"/>
<path d="M33.3346 30.1113H29.9709L38.043 15.581H41.4066L33.3346 30.1113Z" fill="#2E7AFF"/>
</g>
<defs>
<clipPath id="clip0_3261_10218">
<rect width="68" height="62.963" fill="white" transform="translate(0 0.518494)"/>
</clipPath>
</defs>
</svg>
