<svg width="68" height="64" viewBox="0 0 68 64" fill="none" xmlns="http://www.w3.org/2000/svg">
<g clip-path="url(#clip0_3261_10257)">
<path d="M59.3789 61.5245C63.9654 55.8992 66.7224 48.7251 66.7404 40.9047C66.7801 22.8303 52.0679 8.07397 33.9997 8.07397C15.9171 8.07397 1.25903 22.74 1.25903 40.8324C1.25903 48.6709 4.01238 55.8667 8.5989 61.5028C9.61291 62.7484 11.1249 63.4814 12.7307 63.4814H55.2615C56.8565 63.4814 58.3685 62.7629 59.3753 61.5281L59.3789 61.5245Z" fill="#CAC4FF" fill-opacity="0.79"/>
<path d="M18.3367 18.5977C18.3367 18.5977 34.644 26.563 35.1981 49.9482" stroke="#2F1F70" stroke-width="1.25926" stroke-miterlimit="10" stroke-linecap="round"/>
<path d="M43.6225 31.8919C43.6225 31.8919 35.6057 39.3071 35.1992 49.9483" stroke="#2F1F70" stroke-width="1.25926" stroke-miterlimit="10" stroke-linecap="round"/>
<path d="M24.4633 40.4629C24.4633 40.4629 33.9894 40.4263 35.1979 49.9484" stroke="#2F1F70" stroke-width="1.25926" stroke-miterlimit="10" stroke-linecap="round"/>
<path d="M21.5192 4.75226C21.5192 3.80494 20.7512 3.03699 19.8039 3.03699C18.8566 3.03699 18.0886 3.80494 18.0886 4.75226V30.1819C18.0886 31.1292 18.8566 31.8972 19.8039 31.8972C20.7512 31.8972 21.5192 31.1292 21.5192 30.1819V4.75226Z" fill="#E5E2FE"/>
<path d="M17.0667 4.93217C16.7427 4.04198 15.7584 3.58299 14.8682 3.90699C13.978 4.231 13.519 5.21529 13.843 6.10548L22.5405 30.0016C22.8645 30.8917 23.8488 31.3507 24.739 31.0267C25.6291 30.7027 26.0881 29.7184 25.7641 28.8282L17.0667 4.93217Z" fill="#E5E2FE"/>
<path d="M12.9444 6.62424C12.3354 5.89856 11.2535 5.8039 10.5278 6.41282C9.80215 7.02175 9.7075 8.10367 10.3164 8.82936L26.6623 28.3096C27.2712 29.0353 28.3531 29.13 29.0788 28.521C29.8045 27.9121 29.8992 26.8302 29.2902 26.1045L12.9444 6.62424Z" fill="#E5E2FE"/>
<path d="M9.64972 9.62498C8.82932 9.15132 7.78027 9.43241 7.30661 10.2528C6.83295 11.0732 7.11404 12.1223 7.93444 12.5959L29.9572 25.3108C30.7776 25.7844 31.8266 25.5033 32.3003 24.6829C32.774 23.8625 32.4929 22.8135 31.6725 22.3398L9.64972 9.62498Z" fill="#E5E2FE"/>
<path d="M7.58082 13.5709C6.64789 13.4064 5.75825 14.0293 5.59375 14.9622C5.42925 15.8951 6.05219 16.7848 6.98511 16.9493L32.0285 21.3651C32.9614 21.5296 33.851 20.9067 34.0155 19.9737C34.18 19.0408 33.5571 18.1512 32.6242 17.9867L7.58082 13.5709Z" fill="#E5E2FE"/>
<path d="M7.93536 22.3406C7.11496 22.8142 6.83386 23.8633 7.30752 24.6837C7.78118 25.5041 8.83023 25.7852 9.65063 25.3115L31.6734 12.5967C32.4938 12.123 32.7749 11.074 32.3012 10.2535C31.8275 9.43315 30.7785 9.15206 29.9581 9.62572L7.93536 22.3406Z" fill="#E5E2FE"/>
<path d="M10.317 26.1052C9.70809 26.8309 9.80274 27.9128 10.5284 28.5218C11.2541 29.1307 12.336 29.036 12.945 28.3104L29.2908 8.8301C29.8998 8.10441 29.8051 7.02249 29.0794 6.41357C28.3537 5.80464 27.2718 5.8993 26.6629 6.62499L10.317 26.1052Z" fill="#E5E2FE"/>
<path d="M13.844 28.829C13.52 29.7192 13.9789 30.7035 14.8691 31.0275C15.7593 31.3515 16.7436 30.8925 17.0676 30.0023L25.7651 6.10623C26.0891 5.21605 25.6301 4.23175 24.7399 3.90775C23.8497 3.58375 22.8654 4.04273 22.5414 4.93292L13.844 28.829Z" fill="#E5E2FE"/>
<path d="M6.98413 17.9869C6.0512 18.1514 5.42827 19.0411 5.59277 19.974C5.75727 20.9069 6.64691 21.5299 7.57984 21.3654L32.6232 16.9495C33.5561 16.785 34.179 15.8954 34.0145 14.9625C33.85 14.0295 32.9604 13.4066 32.0275 13.5711L6.98413 17.9869Z" fill="#E5E2FE"/>
<path d="M19.8034 27.3571C25.2651 27.3571 29.6927 22.9295 29.6927 17.4679C29.6927 12.0062 25.2651 7.57861 19.8034 7.57861C14.3417 7.57861 9.91418 12.0062 9.91418 17.4679C9.91418 22.9295 14.3417 27.3571 19.8034 27.3571Z" fill="#CAC4FF"/>
<path d="M59.9923 33.2182C60.2592 32.2942 59.6794 31.3241 58.7513 31.0748L55.9033 30.312L58.8786 30.0519C59.823 29.9692 60.5207 29.1373 60.4381 28.193C60.3554 27.2486 59.5235 26.5509 58.5792 26.6335L55.6039 26.8937L58.2757 25.6472C59.1469 25.2407 59.5493 24.1853 59.1266 23.3209C58.716 22.4835 57.7094 22.1259 56.8612 22.5215L54.1542 23.7842L56.2393 21.6991C56.9195 21.0189 56.9357 19.8903 56.2434 19.2224C55.5714 18.5761 54.5037 18.5842 53.8412 19.2454L51.7289 21.3576L52.9754 18.6858C53.3819 17.8146 53.0107 16.747 52.1313 16.3581C51.2791 15.9801 50.2779 16.3527 49.8822 17.2009L48.6195 19.9079L48.8796 16.9326C48.9623 15.9883 48.2645 15.1564 47.3202 15.0737C46.3758 14.9911 45.5439 15.6888 45.4613 16.6332L45.2011 19.6085L44.4384 16.7605C44.1891 15.8311 43.219 15.2526 42.2949 15.5195C41.3994 15.7783 40.8723 16.7077 41.1135 17.6114L44.036 28.5195C44.2256 29.2281 44.5982 29.8744 45.1171 30.3919C45.6361 30.9109 46.2823 31.2835 46.9909 31.4731L57.899 34.3956C58.8028 34.6381 59.7322 34.1097 59.991 33.2142L59.9923 33.2182Z" fill="#E5E2FE"/>
<path d="M41.9655 20.8334C40.0768 24.3873 40.6283 28.8977 43.6225 31.8919C46.6168 34.8862 51.1272 35.4376 54.681 33.5489L41.9655 20.8334Z" fill="#2F1F70"/>
<path d="M25.3871 40.4627C25.3871 38.9371 24.5038 37.6188 23.222 36.9888V43.9353C24.5051 43.3053 25.3871 41.987 25.3871 40.4614V40.4627Z" fill="#2F1F70"/>
<path d="M21.5188 36.5946C19.3822 36.5946 17.6506 38.3261 17.6506 40.4628C17.6506 42.5994 19.3822 44.3309 21.5188 44.3309C22.1299 44.3309 22.707 44.1887 23.2205 43.9367V36.9902C22.707 36.7382 22.1299 36.596 21.5188 36.596V36.5946Z" fill="#E5E2FE"/>
<path d="M51.8395 51.5208L51.0149 58.3235C50.5736 61.9806 46.8728 64.7408 42.4055 64.7408H28.4892C28.1723 64.7408 27.8528 64.7317 27.5124 64.7146C27.3091 64.7055 27.1527 64.5737 27.1417 64.4122C27.1375 64.4054 27.1375 64.3963 27.1375 64.3895C27.1375 64.2485 27.2426 64.1292 27.3948 64.0837C27.4294 64.0712 27.4723 64.0644 27.5124 64.061L27.9219 64.0416C33.0062 63.8006 39.3356 63.5017 40.5683 60.0628C41.3527 57.8779 41.2752 56.2511 40.3456 55.2268C39.3896 54.173 37.4679 53.6614 34.4727 53.6614H17.1945C17.1862 53.6614 17.1792 53.6614 17.1709 53.658C16.9994 53.6512 16.8583 53.5557 16.8112 53.4238V53.4148L16.5802 51.5186H51.8353L51.8395 51.5208Z" fill="#A199E5"/>
<path d="M41.1774 59.8816C39.9087 63.4537 33.4016 63.7642 28.1761 64.0146L27.7551 64.0347C27.7152 64.0382 27.6712 64.0441 27.6342 64.0583C27.4777 64.1055 27.3696 64.2283 27.3696 64.3759C27.3696 64.383 27.3696 64.3925 27.3739 64.3995C27.3853 64.566 27.546 64.703 27.7551 64.7137C28.105 64.7302 28.4335 64.7408 28.7592 64.7408H26.2176C21.6249 64.7408 17.8202 61.8737 17.3623 58.0749L16.7563 52.9877C16.8047 53.1247 16.9484 53.2251 17.1261 53.231C17.1347 53.2345 17.1418 53.2345 17.1503 53.2345H34.9136C37.9929 53.2345 39.967 53.7647 40.9513 54.8606C41.9071 55.9257 41.9867 57.6143 41.1803 59.8839L41.1774 59.8816Z" fill="#CAC4FF"/>
<path d="M53.3068 51.1385C53.3177 51.235 53.2795 51.3315 53.2073 51.4049C53.1337 51.4769 53.0302 51.5185 52.9185 51.5185H15.5046C15.3929 51.5185 15.2894 51.4769 15.2158 51.4049C15.1395 51.3328 15.1041 51.235 15.1122 51.1385L15.3589 48.6409C15.4474 47.7672 16.2472 47.1111 17.2242 47.1111H51.1989C52.1759 47.1111 52.9757 47.7672 53.0602 48.6409L53.3068 51.1385Z" fill="#CAC4FF"/>
<path d="M18.49 22.6071C16.8715 22.4811 15.5092 21.8689 14.7715 20.9421L16.9507 19.3871C17.1267 20.5024 17.7358 21.3818 18.633 21.6965L19.2102 18.0206L18.2327 17.5335C17.1585 16.9838 16.3251 16.3082 16.3251 14.9891C16.3251 12.8682 18.312 11.7064 20.4603 11.7064H20.4768L20.8132 9.64813H21.5664L21.2299 11.7528C22.6725 11.9253 23.8578 12.5858 24.3866 13.5439L22.2393 14.6431C22.0788 13.7638 21.6621 13.0881 21.0694 12.7583L20.5406 16.0258L21.6785 16.5754C22.8803 17.1724 23.5059 17.9732 23.5059 19.1511C23.5223 21.3344 21.5345 22.6223 19.2267 22.6384L18.8737 24.7592H18.136L18.4889 22.6071H18.49ZM19.7401 15.6335L19.8358 15.6809L20.3482 12.5395C20.2844 12.5233 20.2041 12.5233 20.1403 12.5233C19.2585 12.5233 18.5054 13.1355 18.5054 13.9685C18.5054 14.6754 18.9056 15.2099 19.739 15.6335H19.7401ZM19.3872 21.8225C20.3965 21.8225 21.2618 21.0995 21.2618 20.1263C21.2618 19.3881 20.877 18.8536 19.9479 18.3826L19.916 18.3665L19.3553 21.8225H19.3872Z" fill="#2F1F70"/>
</g>
<defs>
<clipPath id="clip0_3261_10257">
<rect width="68" height="62.963" fill="white" transform="translate(0 0.518494)"/>
</clipPath>
</defs>
</svg>
