<svg width="68" height="64" viewBox="0 0 68 64" fill="none" xmlns="http://www.w3.org/2000/svg">
<g clip-path="url(#clip0_3261_10192)">
<path d="M59.3793 61.5245C63.9658 55.8992 66.7227 48.7251 66.7408 40.9047C66.7805 22.8303 52.0683 8.07397 34.0001 8.07397C15.9175 8.07397 1.2594 22.74 1.2594 40.8324C1.2594 48.6709 4.01275 55.8667 8.59926 61.5028C9.61327 62.7484 11.1253 63.4814 12.7311 63.4814H55.2619C56.8569 63.4814 58.3689 62.7629 59.3757 61.5281L59.3793 61.5245Z" fill="#FFDC5E" fill-opacity="0.6"/>
<path d="M39.3142 5.36647C40.9046 7.10176 43.2584 7.94873 45.6029 7.63016C49.8025 7.06041 53.5825 10.1986 53.7451 14.3875C53.8349 16.7278 55.0877 18.872 57.0915 20.1203C60.6795 22.3533 61.5358 27.161 58.9374 30.4738C57.4864 32.3239 57.0512 34.7638 57.776 36.9922C59.0721 40.9835 56.6053 45.2107 52.4614 46.096C50.1478 46.5907 48.2292 48.182 47.3341 50.3507C45.7329 54.2333 41.0951 55.9027 37.346 53.9469C35.2524 52.8549 32.7469 52.8549 30.6532 53.9469C26.9042 55.9027 22.2663 54.2333 20.6651 50.3507C19.7716 48.182 17.853 46.5907 15.5379 46.096C11.394 45.2107 8.92716 40.9835 10.2233 36.9922C10.948 34.7622 10.5129 32.3239 9.06189 30.4738C6.46343 27.161 7.31977 22.3548 10.9077 20.1203C12.9116 18.872 14.1628 16.7278 14.2542 14.3875C14.4167 10.1986 18.1967 7.06041 22.3964 7.63016C24.7424 7.94873 27.0947 7.10176 28.685 5.36647C31.5328 2.26041 36.4665 2.26041 39.3142 5.36647Z" fill="#FFDC5E"/>
<path d="M38.6204 8.43285C40.0033 9.94146 42.0504 10.6782 44.0899 10.4025C47.7429 9.90776 51.0305 12.6355 51.1714 16.2792C51.2503 18.3146 52.339 20.1801 54.0811 21.2645C57.2014 23.2065 57.9462 27.3878 55.6869 30.2687C54.4249 31.8784 54.047 33.9996 54.6757 35.9386C55.8031 39.4107 53.6568 43.0865 50.0533 43.8569C48.0402 44.2873 46.3724 45.6719 45.5951 47.5572C44.2029 50.9329 40.169 52.3848 36.9093 50.6848C35.0882 49.7352 32.9094 49.7352 31.0883 50.6848C27.8271 52.3863 23.7947 50.9344 22.4025 47.5572C21.6252 45.6719 19.9558 44.2873 17.9443 43.8569C14.3408 43.0865 12.1945 39.4107 13.3219 35.9386C13.9521 33.9996 13.5727 31.8784 12.3107 30.2687C10.0513 27.3878 10.7962 23.2081 13.9165 21.2645C15.6586 20.1801 16.7472 18.3146 16.8262 16.2792C16.9671 12.6355 20.2547 9.90776 23.9077 10.4025C25.9471 10.6797 27.9943 9.94299 29.3772 8.43285C31.8533 5.73113 36.1443 5.73113 38.6204 8.43285Z" fill="#DBA703"/>
<path d="M48.6925 31.4037C48.6925 35.4869 47.0232 39.1841 44.3225 41.8659C42.2676 43.9075 41.1201 46.6766 41.1201 49.5591V54.1554C41.1201 54.405 40.9994 54.6271 40.8104 54.7665C40.6819 54.8645 40.5209 54.9212 40.3459 54.9212H27.3551C27.174 54.9212 27.0067 54.8599 26.8751 54.7542C26.6955 54.6164 26.5809 54.3989 26.5809 54.1554V49.9068C26.5809 46.6552 24.4671 43.5262 22.3239 41.0588C19.9763 38.3586 18.5966 34.816 18.7127 30.9503C18.9466 23.1974 25.2786 16.8796 33.1142 16.5855C41.6621 16.2639 48.6925 23.0213 48.6925 31.4037Z" fill="#FFF1BF"/>
<path d="M40.1928 32.7529C39.8722 32.7529 39.5501 32.7743 39.2311 32.8172C38.669 32.8938 38.1533 33.0163 37.8188 33.1541C36.7565 32.6702 34.8178 32.8876 34.8178 32.8876C34.4631 32.9458 34.1411 33.0362 33.853 33.1541C32.7923 32.6702 30.8535 32.8876 30.8535 32.8876C30.4989 32.9458 30.1768 33.0362 29.8888 33.1541C29.2895 32.88 28.3201 32.7866 27.5768 32.7574C26.9945 32.7345 26.4123 32.7743 25.8378 32.8693L28.9596 51.3494L29.4815 54.434L29.5636 54.9211H30.2728L30.1489 54.1859L29.6487 51.2238L26.6353 33.3931C27.1138 33.3563 28.4595 33.3333 29.2151 33.5171C28.4811 34.0256 28.0878 34.7485 28.0228 35.4714C27.9252 36.5619 28.5586 37.4165 29.5279 37.5038C29.6023 37.5115 29.6751 37.5146 29.7447 37.5146C30.5546 37.5146 31.1694 37.0888 31.4141 36.349C31.6882 35.522 31.4327 34.3258 30.4803 33.5355C30.9975 33.39 31.6231 33.3333 32.3602 33.3961C32.6421 33.4191 32.927 33.4559 33.181 33.5171C32.4469 34.0256 32.0536 34.7485 31.9886 35.4714C31.891 36.5619 32.5228 37.4165 33.4922 37.5038C33.5665 37.5115 33.6393 37.5146 33.7106 37.5146C34.5189 37.5146 35.1352 37.0888 35.3799 36.349C35.6524 35.522 35.3985 34.3258 34.4446 33.5355C34.9618 33.39 35.5874 33.3333 36.3245 33.3961C36.6079 33.4176 36.8913 33.4543 37.1452 33.5171C36.4112 34.0256 36.0179 34.7485 35.9528 35.4714C35.8553 36.5619 36.4871 37.4165 37.4565 37.5038C37.5308 37.5115 37.6036 37.5146 37.6748 37.5146C38.4832 37.5146 39.0995 37.0888 39.3442 36.349C39.6167 35.522 39.3627 34.3258 38.4104 33.5355C38.8796 33.4038 40.0085 33.3456 40.7657 33.3823L37.7786 51.0569L37.2954 53.9209L37.1266 54.9211H37.8359L37.9536 54.2288L38.4568 51.2483L41.5617 32.8693C41.1095 32.7942 40.6511 32.7529 40.1928 32.7529ZM30.8752 36.1744C30.7699 36.4976 30.4648 37.0275 29.579 36.9463C28.8497 36.8805 28.5291 36.1805 28.588 35.5204C28.6484 34.8358 29.0634 34.1788 29.8562 33.7744C30.7947 34.3748 31.1137 35.4546 30.8752 36.1744ZM34.841 36.1744C34.7341 36.4976 34.4291 37.0275 33.5433 36.9463C32.814 36.8805 32.4934 36.179 32.5522 35.5204C32.6142 34.8358 33.0276 34.1788 33.8205 33.7744C34.7589 34.3748 35.0795 35.4546 34.841 36.1744ZM38.8053 36.1744C38.6984 36.4976 38.3934 37.0275 37.5076 36.9463C36.7798 36.8805 36.4577 36.1805 36.5165 35.5204C36.5785 34.8358 36.9919 34.1788 37.7863 33.7744C38.7247 34.3748 39.0437 35.4546 38.8053 36.1744Z" fill="#DBA703"/>
<path d="M40.3638 54.921H27.0356V63.8613C27.0356 64.499 27.5526 65.0159 28.1903 65.0159H39.2092C39.8468 65.0159 40.3638 64.499 40.3638 63.8613V54.921Z" fill="#FFDC5E"/>
<rect x="26.6622" y="61.7357" width="14.0751" height="1.96813" rx="0.577317" fill="#FFDC5E"/>
<rect x="26.6622" y="56.233" width="14.0751" height="1.96813" rx="0.577317" fill="#FFDC5E"/>
<rect x="26.6622" y="58.9843" width="14.0751" height="1.96813" rx="0.577317" fill="#FFDC5E"/>
</g>
<defs>
<clipPath id="clip0_3261_10192">
<rect width="68" height="62.963" fill="white" transform="translate(0 0.518494)"/>
</clipPath>
</defs>
</svg>
