<svg width="20" height="18" viewBox="0 0 20 18" fill="none" xmlns="http://www.w3.org/2000/svg">
<path d="M19 18H1C0.734784 18 0.48043 17.8946 0.292893 17.7071C0.105357 17.5196 5.98703e-09 17.2652 5.98703e-09 17V9.487C-1.56288e-05 9.34411 0.0305909 9.20288 0.0897577 9.07282C0.148924 8.94275 0.235277 8.82688 0.343 8.733L4 5.544V1C4 0.734783 4.10536 0.48043 4.29289 0.292893C4.48043 0.105357 4.73478 0 5 0H19C19.2652 0 19.5196 0.105357 19.7071 0.292893C19.8946 0.48043 20 0.734783 20 1V17C20 17.2652 19.8946 17.5196 19.7071 17.7071C19.5196 17.8946 19.2652 18 19 18ZM12 16H18V2H6V4.127C6.234 4.127 6.469 4.209 6.657 4.374L11.657 8.733C11.7647 8.82688 11.8511 8.94275 11.9102 9.07282C11.9694 9.20288 12 9.34411 12 9.487V16ZM14 8H16V10H14V8ZM14 12H16V14H14V12ZM14 4H16V6H14V4ZM10 4H12V6H10V4Z" fill="#1A1A1A"/>
</svg>
