<svg width="18" height="20" viewBox="0 0 18 20" fill="none" xmlns="http://www.w3.org/2000/svg">
<path d="M15 6.66667H17C17.2652 6.66667 17.5196 6.76701 17.7071 6.94561C17.8946 7.12422 18 7.36646 18 7.61905V19.0476C18 19.3002 17.8946 19.5424 17.7071 19.7211C17.5196 19.8997 17.2652 20 17 20H1C0.734784 20 0.48043 19.8997 0.292893 19.7211C0.105357 19.5424 0 19.3002 0 19.0476V7.61905C0 7.36646 0.105357 7.12422 0.292893 6.94561C0.48043 6.76701 0.734784 6.66667 1 6.66667H3V5.71429C3 4.19876 3.63214 2.74531 4.75736 1.67368C5.88258 0.602039 7.4087 0 9 0C10.5913 0 12.1174 0.602039 13.2426 1.67368C14.3679 2.74531 15 4.19876 15 5.71429V6.66667ZM8 14.0305V16.1905H10V14.0305C10.3813 13.8208 10.6793 13.4972 10.8478 13.1098C11.0162 12.7224 11.0458 12.2929 10.9319 11.8879C10.8179 11.4829 10.5668 11.125 10.2175 10.8698C9.86823 10.6145 9.44027 10.4761 9 10.4761C8.55973 10.4761 8.13177 10.6145 7.78248 10.8698C7.43319 11.125 7.1821 11.4829 7.06815 11.8879C6.9542 12.2929 6.98376 12.7224 7.15224 13.1098C7.32072 13.4972 7.61872 13.8208 8 14.0305ZM13 6.66667V5.71429C13 4.70394 12.5786 3.73497 11.8284 3.02055C11.0783 2.30612 10.0609 1.90476 9 1.90476C7.93913 1.90476 6.92172 2.30612 6.17157 3.02055C5.42143 3.73497 5 4.70394 5 5.71429V6.66667H13Z" fill="#09121F"/>
</svg>
