<svg width="68" height="64" viewBox="0 0 68 64" fill="none" xmlns="http://www.w3.org/2000/svg">
<g clip-path="url(#clip0_3261_10116)">
<path d="M59.3792 61.5245C63.9657 55.8992 66.7226 48.7251 66.7407 40.9047C66.7804 22.8303 52.0682 8.07397 34 8.07397C15.9174 8.07397 1.25928 22.74 1.25928 40.8324C1.25928 48.6709 4.01263 55.8667 8.59914 61.5028C9.61315 62.7484 11.1252 63.4814 12.731 63.4814H55.2618C56.8568 63.4814 58.3688 62.7629 59.3755 61.5281L59.3792 61.5245Z" fill="#75FF72" fill-opacity="0.3"/>
<path d="M15.6788 3.03693H34.6905C35.6983 3.03693 36.518 3.94894 36.518 5.07032V63.4814H13.8513V5.07032C13.8513 3.94894 14.671 3.03693 15.6788 3.03693Z" fill="#AEFFAC"/>
<path d="M22.8018 14.6115H17.3942C16.8286 14.6115 16.3701 15.0413 16.3701 15.5716V20.6412C16.3701 21.1714 16.8286 21.6013 17.3942 21.6013H22.8018C23.3674 21.6013 23.8259 21.1714 23.8259 20.6412V15.5716C23.8259 15.0413 23.3674 14.6115 22.8018 14.6115Z" fill="#298057" fill-opacity="0.8"/>
<path d="M22.8018 5.60913H17.3942C16.8286 5.60913 16.3701 6.03899 16.3701 6.56924V11.6388C16.3701 12.1691 16.8286 12.5989 17.3942 12.5989H22.8018C23.3674 12.5989 23.8259 12.1691 23.8259 11.6388V6.56924C23.8259 6.03899 23.3674 5.60913 22.8018 5.60913Z" fill="#298057" fill-opacity="0.8"/>
<path d="M32.9771 14.6112H27.5695C27.0039 14.6112 26.5454 15.0411 26.5454 15.5713V20.6409C26.5454 21.1712 27.0039 21.601 27.5695 21.601H32.9771C33.5427 21.601 34.0012 21.1712 34.0012 20.6409V15.5713C34.0012 15.0411 33.5427 14.6112 32.9771 14.6112Z" fill="#298057" fill-opacity="0.8"/>
<path d="M32.9771 5.60883H27.5695C27.0039 5.60883 26.5454 6.03868 26.5454 6.56893V11.6385C26.5454 12.1688 27.0039 12.5986 27.5695 12.5986H32.9771C33.5427 12.5986 34.0012 12.1688 34.0012 11.6385V6.56893C34.0012 6.03868 33.5427 5.60883 32.9771 5.60883Z" fill="#298057" fill-opacity="0.8"/>
<path d="M22.8018 23.6138H17.3942C16.8286 23.6138 16.3701 24.0437 16.3701 24.5739V29.6435C16.3701 30.1738 16.8286 30.6036 17.3942 30.6036H22.8018C23.3674 30.6036 23.8259 30.1738 23.8259 29.6435V24.5739C23.8259 24.0437 23.3674 23.6138 22.8018 23.6138Z" fill="#298057" fill-opacity="0.8"/>
<path d="M32.9771 23.6136H27.5695C27.0039 23.6136 26.5454 24.0435 26.5454 24.5737V29.6434C26.5454 30.1736 27.0039 30.6035 27.5695 30.6035H32.9771C33.5427 30.6035 34.0012 30.1736 34.0012 29.6434V24.5737C34.0012 24.0435 33.5427 23.6136 32.9771 23.6136Z" fill="#298057" fill-opacity="0.8"/>
<path d="M22.8018 32.6162H17.3942C16.8286 32.6162 16.3701 33.0461 16.3701 33.5763V38.6459C16.3701 39.1762 16.8286 39.606 17.3942 39.606H22.8018C23.3674 39.606 23.8259 39.1762 23.8259 38.6459V33.5763C23.8259 33.0461 23.3674 32.6162 22.8018 32.6162Z" fill="#298057" fill-opacity="0.8"/>
<path d="M22.8018 41.6185H17.3942C16.8286 41.6185 16.3701 42.0484 16.3701 42.5786V47.6482C16.3701 48.1785 16.8286 48.6083 17.3942 48.6083H22.8018C23.3674 48.6083 23.8259 48.1785 23.8259 47.6482V42.5786C23.8259 42.0484 23.3674 41.6185 22.8018 41.6185Z" fill="#298057" fill-opacity="0.8"/>
<path d="M32.9771 32.616H27.5695C27.0039 32.616 26.5454 33.0458 26.5454 33.5761V38.6457C26.5454 39.1759 27.0039 39.6058 27.5695 39.6058H32.9771C33.5427 39.6058 34.0012 39.1759 34.0012 38.6457V33.5761C34.0012 33.0458 33.5427 32.616 32.9771 32.616Z" fill="#298057" fill-opacity="0.8"/>
<path d="M32.9771 41.6183H27.5695C27.0039 41.6183 26.5454 42.0482 26.5454 42.5784V47.6481C26.5454 48.1783 27.0039 48.6082 27.5695 48.6082H32.9771C33.5427 48.6082 34.0012 48.1783 34.0012 47.6481V42.5784C34.0012 42.0482 33.5427 41.6183 32.9771 41.6183Z" fill="#298057" fill-opacity="0.8"/>
<path d="M20.1479 51.9071C22.2343 51.9071 23.9257 53.3675 23.9257 55.1689V63.4816H16.3701V55.1689C16.3701 53.3675 18.0615 51.9071 20.1479 51.9071Z" fill="#298057"/>
<path d="M33.3087 28.7581H52.3204C53.3282 28.7581 54.1479 29.282 54.1479 29.9262V63.4815H31.4812V29.9262C31.4812 29.282 32.3009 28.7581 33.3087 28.7581Z" fill="#75FF72"/>
<path d="M40.4317 40.3325H35.0241C34.4585 40.3325 34 40.7623 34 41.2926V46.3622C34 46.8924 34.4585 47.3223 35.0241 47.3223H40.4317C40.9973 47.3223 41.4558 46.8924 41.4558 46.3622V41.2926C41.4558 40.7623 40.9973 40.3325 40.4317 40.3325Z" fill="#298057" fill-opacity="0.8"/>
<path d="M40.4317 31.3301H35.0241C34.4585 31.3301 34 31.7599 34 32.2902V37.3598C34 37.89 34.4585 38.3199 35.0241 38.3199H40.4317C40.9973 38.3199 41.4558 37.89 41.4558 37.3598V32.2902C41.4558 31.7599 40.9973 31.3301 40.4317 31.3301Z" fill="#298057" fill-opacity="0.8"/>
<path d="M50.6057 40.3325H45.1982C44.6326 40.3325 44.1741 40.7623 44.1741 41.2926V46.3622C44.1741 46.8924 44.6326 47.3223 45.1982 47.3223H50.6057C51.1713 47.3223 51.6298 46.8924 51.6298 46.3622V41.2926C51.6298 40.7623 51.1713 40.3325 50.6057 40.3325Z" fill="#298057" fill-opacity="0.8"/>
<path d="M50.6057 31.3301H45.1982C44.6326 31.3301 44.1741 31.7599 44.1741 32.2902V37.3598C44.1741 37.89 44.6326 38.3199 45.1982 38.3199H50.6057C51.1713 38.3199 51.6298 37.89 51.6298 37.3598V32.2902C51.6298 31.7599 51.1713 31.3301 50.6057 31.3301Z" fill="#298057" fill-opacity="0.8"/>
<path d="M40.4317 49.3348H35.0241C34.4585 49.3348 34 49.7647 34 50.2949V55.3645C34 55.8948 34.4585 56.3246 35.0241 56.3246H40.4317C40.9973 56.3246 41.4558 55.8948 41.4558 55.3645V50.2949C41.4558 49.7647 40.9973 49.3348 40.4317 49.3348Z" fill="#298057" fill-opacity="0.8"/>
<path d="M50.6057 49.3348H45.1982C44.6326 49.3348 44.1741 49.7647 44.1741 50.2949V55.3645C44.1741 55.8948 44.6326 56.3246 45.1982 56.3246H50.6057C51.1713 56.3246 51.6299 55.8948 51.6299 55.3645V50.2949C51.6299 49.7647 51.1713 49.3348 50.6057 49.3348Z" fill="#298057" fill-opacity="0.8"/>
</g>
<defs>
<clipPath id="clip0_3261_10116">
<rect width="68" height="62.963" fill="white" transform="translate(0 0.518494)"/>
</clipPath>
</defs>
</svg>
